<svg xmlns="http://www.w3.org/2000/svg" viewBox="0 0 50 77" fill="#fff"><path
    d="M35.5 24.9c-1.1-.3-2.2-.4-3.2-.4-2.1 0-3.7.6-4.5 1.6-.6.8-.8 1.8-.5 3.1 1.5 7.1 4.1 10.2 8.3 10.2 5.4 0 7.6-1.7 7.8-6.2.2-3.1-1.8-6.9-7.9-8.3zm.3 13.1c-3.5 0-5.5-2.6-6.6-8-.8-3.6 2.8-4.5 6.6-3.7 4.5 1 6.4 3.9 6.3 6.6-.2 3.8-2.2 5.1-6.3 5.1zM17.7 24.6c-1 0-2.1.1-3.2.4-6.1 1.4-8.1 5.2-7.9 8.3.2 4.5 2.4 6.2 7.8 6.2 4.2 0 6.8-3.2 8.3-10.2.3-1.3.1-2.4-.5-3.1-.8-1.1-2.4-1.6-4.5-1.6zm3.2 5.4c-1.2 5.4-3.2 8-6.6 8-4.2 0-6.1-1.3-6.3-5-.1-2.7 1.7-5.6 6.3-6.6 3.8-.9 7.4 0 6.6 3.6z"/><path
    d="M25 0C11.2 0 0 11.2 0 25c0 7.6 3.4 14.5 8.8 19 0 0 8.2 6 8.2 17h16c0-11 8.2-17 8.2-17 5.4-4.6 8.8-11.4 8.8-19C50 11.2 38.8 0 25 0zm-1.3 29.5c-1.6 7.6-4.5 11-9.3 11-6 0-8.6-2.1-8.8-7.2-.1-3.4 2.1-7.8 8.7-9.3 1.2-.3 2.3-.4 3.4-.4 2.4 0 4.2.7 5.3 1.9.8 1 1.1 2.3.7 4zM34.8 6.6c.2.1 6 3 8.2 8.8l-1.9.7c-1.9-5.1-7.2-7.6-7.2-7.7l.9-1.8zm-4-2.1c.6 0 1.1.5 1.1 1.1s-.5 1.1-1.1 1.1-1.1-.5-1.1-1.1.5-1.1 1.1-1.1zm4.8 36c-4.8 0-7.6-3.4-9.3-11-.3-1.6-.1-2.9.7-4 1-1.3 2.8-1.9 5.3-1.9 1.1 0 2.2.1 3.4.4 6.7 1.5 8.9 6 8.7 9.3-.2 5-2.8 7.2-8.8 7.2zM9 69h32v8H9zM17 63h16v4H17z"/></svg>
