<svg id="Layer_1" xmlns="http://www.w3.org/2000/svg" viewBox="0 0 220.4 102.7">
    <style>
        .st0{fill:#fff}
    </style>
    <path d="M0 0h220.4v102.7H0z"/>
    <path class="st0" d="M35.5 24.9c-1.1-.3-2.2-.4-3.2-.4-2.1 0-3.7.6-4.5 1.6-.6.8-.8 1.8-.5 3.1 1.5 7.1 4.1 10.2 8.3 10.2 5.4 0 7.6-1.7 7.8-6.2.2-3.1-1.8-6.9-7.9-8.3zm.3 13.1c-3.5 0-5.5-2.6-6.6-8-.8-3.6 2.8-4.5 6.6-3.7 4.5 1 6.4 3.9 6.3 6.6-.2 3.8-2.2 5.1-6.3 5.1zM17.7 24.6c-1 0-2.1.1-3.2.4-6.1 1.4-8.1 5.2-7.9 8.3.2 4.5 2.4 6.2 7.8 6.2 4.2 0 6.8-3.2 8.3-10.2.3-1.3.1-2.4-.5-3.1-.8-1.1-2.4-1.6-4.5-1.6zm3.2 5.4c-1.2 5.4-3.2 8-6.6 8-4.2 0-6.1-1.3-6.3-5-.1-2.7 1.7-5.6 6.3-6.6 3.8-.9 7.4 0 6.6 3.6z"/>
    <path class="st0" d="M25 0C11.2 0 0 11.2 0 25c0 7.6 3.4 14.5 8.8 19 0 0 8.2 6 8.2 17h16c0-11 8.2-17 8.2-17 5.4-4.6 8.8-11.4 8.8-19C50 11.2 38.8 0 25 0zm-1.3 29.5c-1.6 7.6-4.5 11-9.3 11-6 0-8.6-2.1-8.8-7.2-.1-3.4 2.1-7.8 8.7-9.3 1.2-.3 2.3-.4 3.4-.4 2.4 0 4.2.7 5.3 1.9.8 1 1.1 2.3.7 4zM34.8 6.6c.2.1 6 3 8.2 8.8l-1.9.7c-1.9-5.1-7.2-7.6-7.2-7.7l.9-1.8zm-4-2.1c.6 0 1.1.5 1.1 1.1s-.5 1.1-1.1 1.1-1.1-.5-1.1-1.1.5-1.1 1.1-1.1zm4.8 36c-4.8 0-7.6-3.4-9.3-11-.3-1.6-.1-2.9.7-4 1-1.3 2.8-1.9 5.3-1.9 1.1 0 2.2.1 3.4.4 6.7 1.5 8.9 6 8.7 9.3-.2 5-2.8 7.2-8.8 7.2zM9 69h32v8H9v-8zm8-6h16v4H17v-4zm149.6-47.8V6.7c0-3.7-3-6.7-6.7-6.7h-46.6c-3.7 0-6.7 3-6.7 6.7V8C101 10.1 97 15.5 97 21.8s4 11.7 9.6 13.8v34.7c0 3.7 3 6.7 6.7 6.7h46.6c3.7 0 6.7-3 6.7-6.7V35c4-1.5 6.9-5.4 6.9-9.9s-2.9-8.3-6.9-9.9zm-65.8 6.6c0-6 4.9-10.9 10.9-10.9s10.9 4.9 10.9 10.9c0 6.1-4.9 10.9-10.9 10.9s-10.9-4.8-10.9-10.9zm61.9 48.6c0 1.6-1.3 2.9-2.9 2.9h-46.6c-1.6 0-2.9-1.3-2.9-2.9V36.6c.4.1.8.1 1.2.1 8.2 0 14.8-6.6 14.8-14.8s-6.6-14.8-14.8-14.8c-.5 0-.8 0-1.3.1v-.5c0-1.6 1.3-2.9 2.9-2.9h46.6c1.6 0 2.9 1.3 2.9 2.9v7.8c-5.8.1-10.5 4.8-10.5 10.6s4.7 10.5 10.5 10.6l.1 34.7zm.2-38.5a6.7 6.7 0 1 1 0-13.4 6.7 6.7 0 0 1 0 13.4z"/>
    <path class="st0" d="M147.6 43.4h-22c-4.7 0-8.6 3.9-8.6 8.6v10.1c0 4.7 3.9 8.6 8.6 8.6h22c4.7 0 8.6-3.9 8.6-8.6V51.9c0-4.7-3.9-8.5-8.6-8.5zm-4.1 5.2c0-.6.4-1.2.9-1.4h1.1c.5.2.9.8.9 1.4v4.2c0 .8-.7 1.5-1.5 1.5s-1.5-.7-1.5-1.5v-4.2h.1zm-6 0c0-.6.4-1.2.9-1.4h1.1c.5.2.9.8.9 1.4v4.2c0 .8-.7 1.5-1.5 1.5s-1.5-.7-1.5-1.5v-4.2h.1zm-6.1 0c0-.6.4-1.2.9-1.4h1.1c.5.2.9.8.9 1.4V52c0 .8-.7 1.5-1.5 1.5s-1.5-.7-1.5-1.5v-3.4h.1zm-5.9 0c0-.6.4-1.2.9-1.4h1.1c.5.2.9.8.9 1.4v4.2c0 .8-.7 1.5-1.5 1.5s-1.5-.7-1.5-1.5l.1-4.2zm-4.6 3.3c0-1.3.5-2.5 1.5-3.4.2.2.2.5.2.8v4.5c0 .8-.7 1.5-1.5 1.5h-.2v-3.4zM152.3 62c0 2.6-2.1 4.7-4.7 4.7h-3c-.8-4.6-4.7-8.2-9.4-8.2s-8.6 3.5-9.4 8.2h-.2c-2.6 0-4.7-2.1-4.7-4.7v-3.7h.2c1.5 0 2.7-.7 3.5-1.8.7.5 1.5.8 2.5.8 1.4 0 2.6-.7 3.5-1.7.7.5 1.6.8 2.5.8.9 0 1.8-.3 2.5-.8.8 1 2.1 1.7 3.5 1.7 1.2 0 2.2-.5 3-1.2.8.8 1.8 1.2 3 1.2s2.2-.5 3-1.2c.8.8 1.8 1.2 3 1.2.5 0 .9-.1 1.4-.2V62h-.2zm0-8.6c-.2.5-.8.9-1.4.9-.8 0-1.5-.7-1.5-1.5v-4.2c0-.3.1-.6.3-.9 1.5.8 2.6 2.3 2.6 4.2v1.5zm-23.6-26.5c0-1.4-1.9-1.3-2.1 0-.8 6.9-9.2 11.7-15.2 13.3-.5.2-.3.8.1.8 4.2.5 7.9-1.6 11-4.2 2.9-2.4 6.2-5.8 6.2-9.9zm21.6-.6c-.3-1.2-2-.7-1.8.5.5 3.4 2.2 6.6 4.8 8.9 1.8 1.6 4.9 3.6 7.2 1.8.2-.2 0-.5-.2-.5-5.6-.2-8.8-5.9-10-10.7z"/>
    <circle class="st0" cx="108.7" cy="21.8" r="2.4"/>
    <circle class="st0" cx="160.6" cy="24.2" r="2.4"/>
</svg>
