<svg xmlns="http://www.w3.org/2000/svg" viewBox="0 0 99.2 100" fill="#ffffff">
    <path d="M90.3 19.7v-11c0-4.8-3.9-8.7-8.7-8.7H21.2c-4.8 0-8.7 3.9-8.7 8.7v1.7C5.2 13.1 0 20.1 0 28.3s5.2 15.2 12.5 17.9v45c0 4.8 3.9 8.7 8.7 8.7h60.4c4.8 0 8.7-3.9 8.7-8.7V45.4c5.2-2 8.9-7 8.9-12.8s-3.7-10.9-8.9-12.9zM5 28.3c0-7.8 6.4-14.2 14.2-14.2s14.1 6.4 14.1 14.2c0 7.9-6.3 14.2-14.2 14.2S5 36.2 5 28.3zm80.3 63c0 2.1-1.7 3.7-3.7 3.7H21.2c-2.1 0-3.7-1.7-3.7-3.7V47.4c.5.1 1.1.1 1.6.1 10.6 0 19.2-8.6 19.2-19.2S29.7 9.1 19.1 9.1c-.6 0-1.1 0-1.7.1v-.6c0-2.1 1.7-3.7 3.7-3.7h60.4c2.1 0 3.7 1.7 3.7 3.7v10.1c-7.5.1-13.6 6.2-13.6 13.7S77.7 46 85.2 46.1l.1 45.2zm.2-50c-4.8 0-8.7-3.9-8.7-8.7s3.9-8.7 8.7-8.7c4.8 0 8.7 3.9 8.7 8.7s-3.9 8.7-8.7 8.7z"/>
    <path d="M65.7 56.2H37.1c-6.1 0-11.1 5-11.1 11.1v13.1c0 6.1 5 11.1 11.1 11.1h28.6c6.1 0 11.1-5 11.1-11.1V67.3c0-6.1-5-11.1-11.1-11.1zM60.3 63c0-.8.5-1.5 1.2-1.8h1.4c.7.3 1.2 1 1.2 1.8v5.5c0 1.1-.9 2-2 2s-2-.9-2-2V63h.2zm-7.8 0c0-.8.5-1.5 1.2-1.8h1.4c.7.3 1.2 1 1.2 1.8v5.5c0 1.1-.9 2-2 2s-2-.9-2-2V63h.2zm-7.8 0c0-.8.5-1.5 1.2-1.8h1.4c.7.3 1.2 1 1.2 1.8v4.4c0 1.1-.9 2-2 2s-2-.9-2-2V63h.2zM37 63c0-.8.5-1.5 1.2-1.8h1.4c.7.3 1.2 1 1.2 1.8v5.5c0 1.1-.9 2-2 2s-2-.9-2-2V63h.2zm-6 4.3c0-1.7.7-3.3 1.9-4.4.2.3.3.6.3 1v5.9c0 1.1-.9 2-2 2H31v-4.5zm40.8 13.1c0 3.4-2.7 6.1-6.1 6.1h-3.9c-1-6-6.1-10.6-12.2-10.6s-11.2 4.5-12.2 10.6h-.3c-3.4 0-6.1-2.7-6.1-6.1v-4.8h.2c1.9 0 3.5-.9 4.6-2.3.9.6 2 1 3.2 1 1.8 0 3.4-.9 4.5-2.2.9.7 2.1 1.1 3.3 1.1s2.4-.4 3.3-1.1c1 1.3 2.7 2.2 4.5 2.2 1.5 0 2.9-.6 3.9-1.5 1 1 2.4 1.5 3.9 1.5s2.9-.6 3.9-1.5c1 1 2.4 1.5 3.9 1.5.6 0 1.2-.1 1.8-.3v6.4h-.2zm0-11.1c-.3.7-1 1.2-1.8 1.2-1.1 0-2-.9-2-2V63c0-.4.1-.8.4-1.2 2 1 3.4 3 3.4 5.4v2.1zM41.1 34.9c0-1.8-2.5-1.7-2.7 0-1 8.9-12 15.2-19.7 17.2-.6.2-.4 1 .1 1 5.4.6 10.3-2.1 14.3-5.4 3.8-3.1 8.1-7.5 8-12.8zM69.2 34.1c-.4-1.6-2.6-.9-2.4.7.6 4.4 2.8 8.6 6.2 11.5 2.4 2.1 6.4 4.7 9.4 2.3.3-.2 0-.7-.3-.7-7.2-.2-11.4-7.6-12.9-13.8z"/>
    <circle cx="15.2" cy="28.2" r="3.1"/>
    <circle cx="82.5" cy="31.3" r="3.1"/>
</svg>
